<svg width="173" height="83" xmlns="http://www.w3.org/2000/svg" xmlns:xlink="http://www.w3.org/1999/xlink" overflow="hidden"><defs><clipPath id="clip0"><rect x="862" y="336" width="173" height="83"/></clipPath></defs><g clip-path="url(#clip0)" transform="translate(-862 -336)"><path d="M40.0221 35.5844C39.4185 34.6204 38.5054 33.8899 37.4324 33.5127 36.8744 33.3125 36.2859 33.2108 35.6931 33.2121 34.7143 33.1846 33.7444 33.4045 32.8732 33.8516 32.1153 34.2653 31.47 34.858 30.9933 35.578 30.4997 36.3295 30.1446 37.1633 29.9446 38.0398 29.7232 38.985 29.6138 39.9529 29.6185 40.9237 29.6167 41.8478 29.7262 42.7689 29.9446 43.6668 30.1512 44.5134 30.5063 45.3166 30.9933 46.0391 31.4745 46.7503 32.1191 47.3358 32.8732 47.7464 33.7435 48.1961 34.7141 48.4162 35.6931 48.3859 37.0126 48.4602 38.299 47.9559 39.2164 47.0047 40.1059 45.9866 40.6499 44.7129 40.7702 43.3663L45.534 43.3663C45.4318 44.677 45.1029 45.9599 44.5621 47.1581 44.0683 48.2449 43.3667 49.2246 42.4967 50.042 41.6258 50.8445 40.6012 51.4623 39.485 51.858 38.268 52.2906 36.9847 52.507 35.6931 52.4974 34.1069 52.5208 32.5329 52.216 31.07 51.6022 29.7495 51.0434 28.5668 50.2032 27.6043 49.1404 26.6459 48.0688 25.9111 46.8166 25.443 45.4573 24.933 43.9918 24.6778 42.4498 24.6885 40.8981 24.6732 39.3148 24.9284 37.7405 25.443 36.243 25.9147 34.8661 26.6486 33.5937 27.6043 32.496 28.5628 31.4175 29.7457 30.562 31.07 29.9894 32.53 29.3647 34.1054 29.0553 35.6931 29.0814 36.8795 29.0753 38.0596 29.2544 39.1908 29.6121 40.2579 29.9509 41.2561 30.477 42.1386 31.1659 43.0205 31.8644 43.7514 32.7345 44.2871 33.7237 44.87 34.7895 45.2332 35.9615 45.3549 37.1702L40.5912 37.1702C40.5141 36.6077 40.3202 36.0676 40.0221 35.5844Z" transform="matrix(1.00357 0 0 1 862 336.068)"/><path d="M52.6573 35.8082 52.6573 38.82 52.7212 38.82C53.1492 37.8035 53.8676 36.936 54.7866 36.3262 55.2431 36.0269 55.7378 35.7903 56.2573 35.6228 56.7847 35.4561 57.3347 35.372 57.8878 35.3734 58.2174 35.3792 58.5445 35.4308 58.8598 35.5269L58.8598 39.6448C58.6488 39.6065 58.3994 39.5681 58.1052 39.5361 57.8249 39.5059 57.5431 39.491 57.2612 39.4914 56.5506 39.4691 55.8443 39.6091 55.1958 39.9006 54.6567 40.1529 54.1887 40.5353 53.8338 41.0132 53.4716 41.5015 53.2127 42.0585 53.0729 42.6502 52.9222 43.3194 52.8492 44.0039 52.8555 44.6899L52.8555 51.9923 48.3795 51.9923 48.3795 35.8082 52.6061 35.8082Z" transform="matrix(1.00357 0 0 1 862 336.068)"/><path d="M60.7461 33.2505 60.7461 29.6057 65.2221 29.6057 65.2221 33.2505ZM65.2221 35.8082 65.2221 51.9859 60.7461 51.9859 60.7461 35.8082Z" transform="matrix(1.00357 0 0 1 862 336.068)"/><path d="M72.9337 35.8082 72.9337 37.8544 72.9976 37.8544C73.4849 37.0255 74.2055 36.3583 75.0694 35.9361 75.9324 35.5353 76.8739 35.3321 77.8253 35.3414 78.9654 35.3118 80.0955 35.5597 81.1184 36.064 82.0141 36.526 82.796 37.1812 83.4076 37.9823 84.0315 38.812 84.4896 39.7543 84.7568 40.7574 85.0539 41.8341 85.2024 42.9464 85.198 44.0633 85.2016 45.1234 85.0531 46.1786 84.7568 47.1965 84.4851 48.165 84.034 49.0738 83.4268 49.8757 82.8317 50.6438 82.074 51.2705 81.2079 51.7109 80.2396 52.2015 79.1665 52.4494 78.0811 52.4335 77.1193 52.4355 76.1699 52.2167 75.306 51.794 74.4641 51.3876 73.7449 50.7654 73.2214 49.9908L73.1575 49.9908 73.1575 57.664 68.6814 57.664 68.6814 35.8082ZM78.6886 48.6608C79.1918 48.3784 79.6178 47.9766 79.9291 47.4907 80.2413 46.9868 80.4581 46.4297 80.5685 45.8473 80.6949 45.2158 80.757 44.5731 80.7539 43.929 80.7538 43.2841 80.6852 42.6411 80.5493 42.0107 80.4375 41.4187 80.221 40.8514 79.9099 40.3354 79.5884 39.8496 79.1568 39.4465 78.6502 39.1588 78.103 38.843 77.4786 38.6858 76.847 38.7049 76.2051 38.6835 75.5698 38.8407 75.0118 39.1588 74.5286 39.4524 74.1212 39.8554 73.8225 40.3354 73.5113 40.8467 73.2947 41.4099 73.1831 41.9979 73.0576 42.6296 72.9955 43.2722 72.9976 43.9162 72.9978 44.5611 73.0664 45.2041 73.2022 45.8345 73.3148 46.4163 73.5314 46.973 73.8417 47.4779 74.1453 47.9521 74.5602 48.345 75.0502 48.6225 75.6048 48.9303 76.2322 49.0827 76.8662 49.0637 77.5116 49.0901 78.1522 48.9421 78.7205 48.6352Z" transform="matrix(1.00357 0 0 1 862 336.068)"/><path d="M96.7589 35.8082 96.7589 38.788 93.4978 38.788 93.4978 46.7873C93.4348 47.3175 93.5691 47.8524 93.8751 48.2899 94.3132 48.5949 94.8476 48.729 95.3778 48.6672 95.6271 48.6672 95.8701 48.6672 96.1003 48.6672 96.3152 48.6484 96.5288 48.6163 96.7397 48.5713L96.7397 51.9859C96.3162 52.0526 95.8892 52.0953 95.4609 52.1138 95.0005 52.1138 94.5529 52.1138 94.1117 52.1138 93.4568 52.1174 92.8026 52.0704 92.155 51.9731 91.5819 51.8931 91.0289 51.7066 90.5245 51.4232 90.0506 51.1516 89.6645 50.75 89.4118 50.2658 89.1124 49.6517 88.9717 48.9724 89.0026 48.2899L89.0026 38.7624 86.3234 38.7624 86.3234 35.8082 89.0218 35.8082 89.0218 30.9485 93.4978 30.9485 93.4978 35.8082Z" transform="matrix(1.00357 0 0 1 862 336.068)"/><path d="M98.9842 40.3802C99.714 38.3453 101.295 36.7296 103.313 35.9553 104.411 35.5237 105.58 35.3067 106.76 35.3159 107.945 35.3078 109.121 35.5248 110.225 35.9553 111.22 36.3375 112.122 36.9258 112.873 37.6818 113.621 38.4519 114.199 39.3714 114.567 40.3802 114.976 41.5091 115.178 42.7028 115.162 43.9034 115.179 45.1 114.977 46.2897 114.567 47.4139 114.198 48.4165 113.62 49.3295 112.873 50.0931 112.124 50.8451 111.221 51.4255 110.225 51.794 109.117 52.2041 107.942 52.4058 106.76 52.3887 105.584 52.4059 104.415 52.2042 103.313 51.794 102.324 51.4187 101.425 50.8367 100.679 50.0868 99.9335 49.3214 99.3563 48.4088 98.9842 47.4075 98.5736 46.2834 98.372 45.0937 98.3895 43.897 98.374 42.6985 98.5755 41.507 98.9842 40.3802ZM103.025 45.8026C103.139 46.3902 103.355 46.953 103.665 47.4651 103.96 47.9522 104.374 48.3569 104.867 48.6416 105.443 48.9547 106.092 49.1071 106.747 49.0828 107.414 49.1087 108.076 48.9564 108.665 48.6416 109.166 48.36 109.586 47.955 109.886 47.4651 110.195 46.9522 110.411 46.3896 110.526 45.8026 110.654 45.1713 110.716 44.5284 110.711 43.8843 110.712 43.2403 110.649 42.5979 110.526 41.966 110.42 41.3763 110.203 40.8121 109.886 40.3034 109.579 39.8194 109.16 39.416 108.665 39.1269 108.079 38.8047 107.416 38.6477 106.747 38.6729 105.497 38.6118 104.313 39.2368 103.658 40.3034 103.347 40.8148 103.131 41.3779 103.019 41.966 102.893 42.5975 102.83 43.2402 102.834 43.8843 102.831 44.5286 102.896 45.1714 103.025 45.8026Z" transform="matrix(1.00357 0 0 1 862 336.068)"/><path d="M120.738 29.6121 120.738 50.1763 133.277 50.1763 133.277 51.9923 118.608 51.9923 118.608 29.6121Z" fill="#DA9E29" transform="matrix(1.00357 0 0 1 862 336.068)"/><path d="M145.151 36.0384C146.074 36.4748 146.892 37.1051 147.549 37.8864 148.211 38.6861 148.71 39.6069 149.02 40.5976 149.685 42.7513 149.685 45.0556 149.02 47.2093 148.71 48.2 148.211 49.1208 147.549 49.9205 146.895 50.7016 146.076 51.3283 145.151 51.7557 143.061 52.6515 140.694 52.6515 138.603 51.7557 137.677 51.3275 136.856 50.701 136.199 49.9205 135.538 49.1208 135.038 48.2 134.728 47.2093 134.063 45.0556 134.063 42.7513 134.728 40.5976 135.038 39.6069 135.538 38.6861 136.199 37.8864 136.856 37.1051 137.674 36.4748 138.597 36.0384 140.683 35.1179 143.059 35.1179 145.145 36.0384ZM139.396 37.605C138.699 37.9924 138.095 38.527 137.625 39.1716 137.146 39.843 136.785 40.5912 136.557 41.3841 136.314 42.2147 136.193 43.0763 136.199 43.9418 136.197 44.807 136.317 45.6682 136.557 46.4995 136.781 47.2939 137.142 48.0428 137.625 48.712 138.102 49.3334 138.706 49.8457 139.396 50.2146 140.951 51.0072 142.791 51.0072 144.346 50.2146 145.043 49.8272 145.647 49.2926 146.117 48.648 146.597 47.9774 146.958 47.2289 147.185 46.4356 147.428 45.605 147.548 44.7433 147.543 43.8779 147.545 43.0127 147.424 42.1515 147.185 41.3201 146.958 40.5267 146.597 39.7783 146.117 39.1077 145.647 38.4631 145.043 37.9285 144.346 37.5411 142.791 36.7485 140.951 36.7485 139.396 37.5411Z" fill="#DA9E29" transform="matrix(1.00357 0 0 1 862 336.068)"/><path d="M154.493 35.8082 154.493 53.4566C154.497 54.035 154.45 54.6127 154.353 55.183 154.27 55.6882 154.089 56.1724 153.822 56.609 153.557 57.0207 153.189 57.3558 152.754 57.5809 152.224 57.8402 151.637 57.9633 151.047 57.939 150.817 57.939 150.593 57.939 150.375 57.907 150.158 57.875 149.934 57.907 149.736 57.907L149.736 56.2701C149.902 56.2701 150.081 56.3084 150.267 56.3148 150.432 56.3315 150.6 56.3315 150.765 56.3148 151.539 56.3148 152.044 56.091 152.236 55.6754 152.462 55.1465 152.568 54.5747 152.549 54.0001L152.549 35.8082 154.525 35.8082ZM154.493 29.6057 154.493 32.7709 152.517 32.7709 152.517 29.6121Z" fill="#DA9E29" transform="matrix(1.00357 0 0 1 862 336.068)"/><path d="M158.694 38.3276C159.007 37.6625 159.474 37.0816 160.056 36.6331 160.66 36.1798 161.346 35.8495 162.077 35.6612 162.912 35.4442 163.772 35.3388 164.635 35.3478 165.349 35.3493 166.062 35.4178 166.764 35.5524 167.449 35.6751 168.102 35.9362 168.682 36.3198 169.279 36.7194 169.763 37.2654 170.089 37.9056 170.477 38.7323 170.659 39.6405 170.62 40.5528L170.62 49.1404C170.53 49.7054 170.916 50.2361 171.481 50.3257 171.579 50.3413 171.679 50.3426 171.777 50.3297 171.997 50.3371 172.216 50.2933 172.417 50.2019L172.417 51.8644C172.186 51.9091 171.982 51.9347 171.809 51.9603 171.585 51.972 171.361 51.972 171.138 51.9603 170.717 51.9914 170.295 51.9348 169.897 51.794 169.611 51.6732 169.366 51.4709 169.194 51.2122 169.021 50.9407 168.907 50.6355 168.861 50.3169 168.808 49.9378 168.782 49.5552 168.785 49.1724L168.721 49.1724C168.391 49.6597 168.03 50.1253 167.64 50.5663 167.287 50.9652 166.875 51.3081 166.419 51.583 165.942 51.8724 165.425 52.088 164.884 52.2225 164.211 52.3792 163.522 52.4522 162.831 52.4399 162.117 52.4449 161.405 52.3545 160.715 52.1713 160.089 52.0082 159.502 51.7212 158.988 51.3272 158.492 50.9355 158.095 50.4315 157.831 49.8566 157.535 49.1912 157.391 48.4681 157.409 47.74 157.352 46.7974 157.618 45.8634 158.164 45.0928 158.684 44.4378 159.371 43.9344 160.152 43.6349 161.048 43.2837 161.985 43.0474 162.94 42.9315 163.976 42.7972 165.025 42.6629 166.093 42.5414 166.508 42.4967 166.879 42.4455 167.192 42.3816 167.475 42.3306 167.743 42.2193 167.979 42.0555 168.195 41.8897 168.363 41.6689 168.465 41.416 168.592 41.075 168.651 40.7121 168.638 40.3482 168.66 39.7817 168.546 39.218 168.305 38.7049 168.099 38.2909 167.785 37.9399 167.397 37.6882 166.986 37.4289 166.527 37.2529 166.048 37.1702 165.506 37.0728 164.955 37.0258 164.405 37.0295 163.311 36.9826 162.232 37.2972 161.335 37.9247 160.479 38.6256 160.004 39.6904 160.056 40.7958L158.081 40.7958C158.114 39.9396 158.322 39.0995 158.694 38.3276ZM168.567 43.1489C168.404 43.4061 168.143 43.5861 167.845 43.6477 167.536 43.7407 167.222 43.8133 166.905 43.8651 166.067 44.0121 165.21 44.14 164.347 44.2551 163.523 44.356 162.71 44.5293 161.917 44.7731 161.252 44.967 160.637 45.303 160.114 45.7578 159.625 46.2391 159.369 46.9083 159.411 47.593 159.399 48.0543 159.503 48.5113 159.711 48.923 159.903 49.307 160.171 49.6485 160.498 49.9269 160.838 50.2136 161.231 50.4308 161.655 50.5663 162.09 50.7115 162.546 50.7849 163.004 50.7837 163.738 50.7866 164.468 50.67 165.165 50.4384 165.827 50.2256 166.439 49.8845 166.969 49.4345 168.057 48.5056 168.672 47.1375 168.644 45.7066L168.644 43.1489 168.58 43.1489Z" fill="#DA9E29" transform="matrix(1.00357 0 0 1 862 336.068)"/><path d="M41.1091 63.6427 41.1091 75.7919C48.4892 74.8428 55.3562 71.5058 60.663 66.29L52.0946 57.6193C49.0366 60.5724 45.2433 62.6523 41.1091 63.6427Z" fill="#DA9E29" transform="matrix(1.00357 0 0 1 862 336.068)"/><path d="M51.4296 24.9379 59.8125 16.8618C53.8115 10.8118 45.7808 7.20083 37.2725 6.72683L37.2725 0 29.5993 0 29.5993 7.03376 29.5993 7.03376 29.5993 19.2405C31.4929 18.8531 33.4214 18.6624 35.3542 18.6714 41.3244 18.5864 47.092 20.8347 51.4296 24.9379Z" fill="#DA9E29" transform="matrix(1.00357 0 0 1 862 336.068)"/><path d="M29.5738 75.8623 29.5738 82.896 37.2469 82.896 37.2469 64.3525C36.6075 64.41 35.9681 64.442 35.3286 64.442 18.8569 64.442 12.4753 52.9322 12.3794 41.87 12.3027 33.2697 16.4398 24.1578 25.7308 20.4554L25.7308 7.71795C8.21671 11.7592-0.0831262 26.8881 0 41.8125 0.0895206 57.7344 8.95206 73.4196 29.5738 75.8623Z" fill="#DA9E29" transform="matrix(1.00357 0 0 1 862 336.068)"/></g></svg>