<svg width="40" height="19" xmlns="http://www.w3.org/2000/svg" xmlns:xlink="http://www.w3.org/1999/xlink" overflow="hidden"><defs><clipPath id="clip0"><rect x="694" y="499" width="40" height="19"/></clipPath></defs><g clip-path="url(#clip0)" transform="translate(-694 -499)"><path d="M9.16168 8.14583C9.02351 7.92515 8.81449 7.75793 8.56886 7.67157 8.44113 7.62574 8.30641 7.60247 8.17072 7.60278 7.94665 7.59648 7.72463 7.64682 7.5252 7.74915 7.3517 7.84387 7.20397 7.97954 7.09485 8.14437 6.98187 8.3164 6.90057 8.50725 6.85479 8.70792 6.80411 8.92428 6.77906 9.14585 6.78014 9.36807 6.77973 9.57963 6.80479 9.79046 6.85479 9.99602 6.90209 10.1898 6.98337 10.3737 7.09485 10.5391 7.205 10.7019 7.35257 10.8359 7.5252 10.9299 7.72441 11.0328 7.94659 11.0832 8.17072 11.0763 8.47276 11.0933 8.76724 10.9779 8.97725 10.7601 9.18088 10.5271 9.3054 10.2355 9.33294 9.92723L10.4234 9.92723C10.4001 10.2273 10.3248 10.521 10.201 10.7952 10.0879 11.044 9.92731 11.2683 9.72816 11.4554 9.52879 11.6391 9.29426 11.7805 9.03872 11.8711 8.76014 11.9701 8.46637 12.0197 8.17072 12.0175 7.8076 12.0228 7.44729 11.9531 7.11242 11.8126 6.81013 11.6846 6.53939 11.4923 6.31906 11.249 6.09967 11.0037 5.93146 10.717 5.82431 10.4059 5.70756 10.0704 5.64914 9.71741 5.65158 9.36222 5.64808 8.99977 5.70649 8.63938 5.82431 8.2966 5.93227 7.9814 6.10029 7.69012 6.31906 7.43883 6.53847 7.19197 6.80926 6.99612 7.11242 6.86504 7.44662 6.72203 7.80725 6.6512 8.17072 6.65719 8.4423 6.6558 8.71244 6.69679 8.97139 6.77868 9.21566 6.85623 9.44417 6.97667 9.64619 7.13437 9.84806 7.29425 10.0154 7.49344 10.138 7.71988 10.2715 7.96386 10.3546 8.23215 10.3825 8.50884L9.29196 8.50884C9.27431 8.38008 9.22993 8.25643 9.16168 8.14583Z" transform="matrix(1.01365 0 0 1 694 499.016)"/><path d="M12.0541 8.19706 12.0541 8.88649 12.0687 8.88649C12.1667 8.65381 12.3311 8.45522 12.5415 8.31563 12.646 8.24712 12.7592 8.19296 12.8782 8.15461 12.9989 8.11646 13.1248 8.0972 13.2514 8.09753 13.3269 8.09885 13.4018 8.11067 13.4739 8.13266L13.4739 9.07532C13.4256 9.06654 13.3685 9.05775 13.3012 9.05044 13.237 9.04352 13.1725 9.0401 13.108 9.04019 12.9453 9.0351 12.7836 9.06714 12.6352 9.13387 12.5118 9.19164 12.4046 9.27915 12.3234 9.38856 12.2405 9.50035 12.1812 9.62785 12.1492 9.76329 12.1147 9.9165 12.098 10.0732 12.0995 10.2302L12.0995 11.9018 11.0748 11.9018 11.0748 8.19706 12.0424 8.19706Z" transform="matrix(1.01365 0 0 1 694 499.016)"/><path d="M13.9057 7.61156 13.9057 6.77721 14.9304 6.77721 14.9304 7.61156ZM14.9304 8.19706 14.9304 11.9004 13.9057 11.9004 13.9057 8.19706Z" transform="matrix(1.01365 0 0 1 694 499.016)"/><path d="M16.6957 8.19706 16.6957 8.66547 16.7103 8.66547C16.8219 8.47571 16.9868 8.32299 17.1846 8.22634 17.3821 8.13459 17.5976 8.08808 17.8154 8.09021 18.0764 8.08342 18.3351 8.14018 18.5693 8.25561 18.7743 8.36137 18.9533 8.51136 19.0933 8.69474 19.2361 8.88468 19.341 9.10037 19.4022 9.33001 19.4702 9.57648 19.5042 9.8311 19.5032 10.0868 19.504 10.3295 19.47 10.571 19.4022 10.804 19.34 11.0257 19.2367 11.2338 19.0977 11.4173 18.9615 11.5932 18.788 11.7366 18.5898 11.8374 18.3681 11.9497 18.1225 12.0065 17.874 12.0028 17.6538 12.0033 17.4365 11.9532 17.2387 11.8565 17.046 11.7634 16.8814 11.621 16.7615 11.4437L16.7469 11.4437 16.7469 13.2002 15.7223 13.2002 15.7223 8.19706ZM18.013 11.1392C18.1282 11.0746 18.2258 10.9826 18.297 10.8714 18.3685 10.756 18.4181 10.6285 18.4434 10.4952 18.4723 10.3506 18.4865 10.2035 18.4858 10.056 18.4858 9.90842 18.4701 9.76122 18.439 9.61691 18.4134 9.48139 18.3638 9.35152 18.2926 9.23341 18.219 9.12219 18.1202 9.02991 18.0043 8.96407 17.879 8.89177 17.7361 8.85578 17.5915 8.86015 17.4445 8.85527 17.2991 8.89124 17.1714 8.96407 17.0608 9.03127 16.9675 9.12353 16.8991 9.23341 16.8279 9.35045 16.7783 9.47937 16.7527 9.61398 16.724 9.75858 16.7098 9.90569 16.7103 10.0531 16.7103 10.2007 16.726 10.3479 16.7571 10.4922 16.7829 10.6254 16.8325 10.7529 16.9035 10.8684 16.973 10.977 17.068 11.0669 17.1802 11.1304 17.3071 11.2009 17.4507 11.2358 17.5959 11.2314 17.7436 11.2375 17.8903 11.2036 18.0204 11.1334Z" transform="matrix(1.01365 0 0 1 694 499.016)"/><path d="M22.1496 8.19706 22.1496 8.87918 21.4031 8.87918 21.4031 10.7103C21.3887 10.8317 21.4194 10.9542 21.4895 11.0543 21.5898 11.1241 21.7121 11.1548 21.8335 11.1407 21.8905 11.1407 21.9462 11.1407 21.9989 11.1407 22.0481 11.1364 22.0969 11.129 22.1452 11.1187L22.1452 11.9004C22.0483 11.9157 21.9505 11.9254 21.8525 11.9297 21.7471 11.9297 21.6446 11.9297 21.5436 11.9297 21.3937 11.9305 21.244 11.9197 21.0957 11.8975 20.9645 11.8792 20.8379 11.8365 20.7225 11.7716 20.614 11.7094 20.5256 11.6175 20.4678 11.5066 20.3992 11.3661 20.367 11.2106 20.3741 11.0543L20.3741 8.87332 19.7608 8.87332 19.7608 8.19706 20.3785 8.19706 20.3785 7.0846 21.4031 7.0846 21.4031 8.19706Z" transform="matrix(1.01365 0 0 1 694 499.016)"/><path d="M22.659 9.24365C22.8261 8.77783 23.1879 8.40798 23.65 8.23073 23.9012 8.13194 24.169 8.08225 24.439 8.08435 24.7103 8.08251 24.9795 8.13218 25.2323 8.23073 25.4599 8.31821 25.6665 8.4529 25.8383 8.62595 26.0097 8.80225 26.1418 9.01274 26.2262 9.24365 26.3199 9.50209 26.366 9.77533 26.3623 10.0502 26.3662 10.3241 26.3201 10.5964 26.2262 10.8538 26.1416 11.0833 26.0094 11.2923 25.8383 11.4671 25.6669 11.6392 25.4601 11.7721 25.2323 11.8565 24.9785 11.9503 24.7095 11.9965 24.439 11.9926 24.1698 11.9965 23.9023 11.9504 23.65 11.8565 23.4235 11.7705 23.2179 11.6373 23.0469 11.4656 22.8763 11.2904 22.7442 11.0815 22.659 10.8523 22.565 10.595 22.5189 10.3226 22.5229 10.0487 22.5193 9.77435 22.5655 9.5016 22.659 9.24365ZM23.5841 10.4849C23.61 10.6194 23.6596 10.7483 23.7305 10.8655 23.7981 10.977 23.8927 11.0697 24.0057 11.1348 24.1375 11.2065 24.2861 11.2414 24.436 11.2358 24.5888 11.2418 24.7403 11.2069 24.8752 11.1348 24.9898 11.0704 25.086 10.9776 25.1547 10.8655 25.2252 10.7481 25.2748 10.6193 25.3011 10.4849 25.3305 10.3404 25.3447 10.1932 25.3436 10.0458 25.3436 9.89839 25.3294 9.75133 25.3011 9.60666 25.2769 9.47167 25.2272 9.34252 25.1547 9.22609 25.0844 9.11529 24.9885 9.02294 24.8752 8.95675 24.7409 8.88299 24.5891 8.84707 24.436 8.85283 24.1499 8.83884 23.8789 8.98192 23.729 9.22609 23.6578 9.34313 23.6082 9.47205 23.5827 9.60666 23.5537 9.75123 23.5395 9.89836 23.5402 10.0458 23.5397 10.1933 23.5544 10.3404 23.5841 10.4849Z" transform="matrix(1.01365 0 0 1 694 499.016)"/><path d="M27.6387 6.77868 27.6387 11.4861 30.5092 11.4861 30.5092 11.9018 27.1513 11.9018 27.1513 6.77868Z" fill="#DA9E29" transform="matrix(1.01365 0 0 1 694 499.016)"/><path d="M33.2274 8.24976C33.4386 8.34965 33.6259 8.49394 33.7763 8.67278 33.9277 8.85584 34.0421 9.06665 34.113 9.29342 34.2652 9.78644 34.2652 10.3139 34.113 10.8069 34.0421 11.0337 33.9277 11.2445 33.7763 11.4276 33.6265 11.6064 33.4391 11.7499 33.2274 11.8477 32.7488 12.0527 32.2071 12.0527 31.7285 11.8477 31.5165 11.7497 31.3286 11.6063 31.1781 11.4276 31.0267 11.2445 30.9123 11.0337 30.8414 10.8069 30.6892 10.3139 30.6892 9.78644 30.8414 9.29342 30.9123 9.06665 31.0267 8.85584 31.1781 8.67278 31.3285 8.49394 31.5158 8.34965 31.727 8.24976 32.2044 8.03904 32.7485 8.03904 33.2259 8.24976ZM31.91 8.60838C31.7504 8.69707 31.612 8.81944 31.5045 8.967 31.3948 9.12069 31.3122 9.29197 31.2601 9.47346 31.2044 9.6636 31.1768 9.86085 31.1781 10.059 31.1776 10.257 31.2052 10.4542 31.2601 10.6445 31.3112 10.8263 31.394 10.9978 31.5045 11.1509 31.6136 11.2932 31.7519 11.4105 31.91 11.4949 32.2659 11.6764 32.6871 11.6764 33.0429 11.4949 33.2025 11.4062 33.3409 11.2839 33.4484 11.1363 33.5584 10.9828 33.6411 10.8114 33.6929 10.6298 33.7485 10.4397 33.7761 10.2424 33.7748 10.0443 33.7753 9.84627 33.7477 9.64915 33.6929 9.45883 33.6411 9.27721 33.5584 9.10587 33.4484 8.95236 33.3409 8.8048 33.2025 8.68243 33.0429 8.59374 32.6871 8.41231 32.2659 8.41231 31.91 8.59374Z" fill="#DA9E29" transform="matrix(1.01365 0 0 1 694 499.016)"/><path d="M35.3659 8.19706 35.3659 12.237C35.3667 12.3695 35.3559 12.5017 35.3337 12.6323 35.3147 12.7479 35.2735 12.8588 35.2122 12.9587 35.1516 13.0529 35.0673 13.1296 34.9678 13.1812 34.8463 13.2405 34.712 13.2687 34.577 13.2631 34.5243 13.2631 34.473 13.2631 34.4233 13.2558 34.3735 13.2485 34.3223 13.2558 34.2769 13.2558L34.2769 12.8811C34.315 12.8811 34.3559 12.8899 34.3984 12.8913 34.4364 12.8952 34.4746 12.8952 34.5126 12.8913 34.6897 12.8913 34.8053 12.8401 34.8492 12.745 34.9008 12.6239 34.9253 12.493 34.921 12.3615L34.921 8.19706 35.3733 8.19706ZM35.3659 6.77721 35.3659 7.50178 34.9136 7.50178 34.9136 6.77868Z" fill="#DA9E29" transform="matrix(1.01365 0 0 1 694 499.016)"/><path d="M36.3276 8.77378C36.3992 8.62154 36.5061 8.48857 36.6394 8.38589 36.7775 8.28211 36.9347 8.20652 37.102 8.1634 37.2931 8.11373 37.49 8.08961 37.6875 8.09167 37.851 8.09202 38.0142 8.1077 38.1749 8.13851 38.3317 8.16658 38.4811 8.22635 38.614 8.31416 38.7506 8.40565 38.8615 8.53063 38.936 8.67718 39.0248 8.86643 39.0665 9.07433 39.0575 9.28317L39.0575 11.249C39.037 11.3784 39.1253 11.4998 39.2546 11.5203 39.2771 11.5239 39.2999 11.5242 39.3225 11.5213 39.3729 11.5229 39.423 11.5129 39.4689 11.492L39.4689 11.8726C39.4162 11.8828 39.3693 11.8887 39.3298 11.8945 39.2786 11.8972 39.2273 11.8972 39.1761 11.8945 39.0798 11.9016 38.9831 11.8887 38.8921 11.8565 38.8266 11.8288 38.7706 11.7825 38.7311 11.7233 38.6915 11.6611 38.6656 11.5913 38.655 11.5183 38.6428 11.4315 38.6369 11.344 38.6374 11.2563L38.6228 11.2563C38.5473 11.3679 38.4646 11.4745 38.3754 11.5754 38.2946 11.6667 38.2003 11.7452 38.0958 11.8082 37.9868 11.8744 37.8684 11.9238 37.7445 11.9545 37.5906 11.9904 37.4328 12.0071 37.2747 12.0043 37.1112 12.0055 36.9482 11.9848 36.7902 11.9428 36.6468 11.9055 36.5125 11.8398 36.395 11.7496 36.2812 11.6599 36.1904 11.5446 36.13 11.4129 36.0622 11.2606 36.0292 11.0951 36.0334 10.9284 36.0202 10.7127 36.0812 10.4989 36.2061 10.3224 36.3253 10.1725 36.4825 10.0573 36.6614 9.98871 36.8664 9.90832 37.0809 9.85422 37.2996 9.82769 37.5367 9.79695 37.7767 9.76621 38.0212 9.7384 38.1163 9.72816 38.2012 9.71645 38.273 9.70181 38.3376 9.69013 38.399 9.66467 38.453 9.62716 38.5025 9.58921 38.5409 9.53865 38.5643 9.48078 38.5934 9.40271 38.6069 9.31963 38.6038 9.23633 38.609 9.10664 38.5829 8.97761 38.5277 8.86015 38.4804 8.7654 38.4086 8.68503 38.3198 8.62741 38.2256 8.56805 38.1207 8.52777 38.011 8.50884 37.8868 8.48656 37.7609 8.47578 37.6348 8.47664 37.3844 8.46589 37.1375 8.53791 36.9322 8.68157 36.7361 8.84199 36.6275 9.08574 36.6394 9.3388L36.1871 9.3388C36.1947 9.14281 36.2425 8.95048 36.3276 8.77378ZM38.5877 9.87746C38.5503 9.93634 38.4906 9.97754 38.4223 9.99163 38.3517 10.0129 38.2798 10.0296 38.2071 10.0414 38.0153 10.0751 37.8192 10.1043 37.6216 10.1307 37.4331 10.1538 37.2469 10.1935 37.0654 10.2493 36.9131 10.2936 36.7722 10.3706 36.6526 10.4747 36.5407 10.5848 36.482 10.738 36.4916 10.8948 36.489 11.0004 36.5126 11.105 36.5604 11.1992 36.6043 11.2872 36.6656 11.3653 36.7404 11.429 36.8183 11.4947 36.9083 11.5444 37.0053 11.5754 37.1049 11.6087 37.2092 11.6255 37.3142 11.6252 37.4823 11.6258 37.6494 11.5991 37.8089 11.5461 37.9603 11.4974 38.1006 11.4193 38.2217 11.3163 38.4709 11.1037 38.6117 10.7905 38.6052 10.463L38.6052 9.87746 38.5906 9.87746Z" fill="#DA9E29" transform="matrix(1.01365 0 0 1 694 499.016)"/><path d="M9.41052 14.5688 9.41052 17.35C11.0999 17.1327 12.6719 16.3688 13.8867 15.1748L11.9253 13.19C11.2252 13.866 10.3569 14.3421 9.41052 14.5688Z" fill="#DA9E29" transform="matrix(1.01365 0 0 1 694 499.016)"/><path d="M11.773 5.70867 13.692 3.85994C12.3183 2.47498 10.4799 1.64838 8.53226 1.53988L8.53226 0 6.77575 0 6.77575 1.61014 6.77575 1.61014 6.77575 4.40446C7.20922 4.31576 7.65069 4.27211 8.09314 4.27418 9.4598 4.25471 10.7801 4.76939 11.773 5.70867Z" fill="#DA9E29" transform="matrix(1.01365 0 0 1 694 499.016)"/><path d="M6.7699 17.3661 6.7699 18.9762 8.52641 18.9762 8.52641 14.7313C8.38003 14.7445 8.23366 14.7518 8.08728 14.7518 4.31663 14.7518 2.8558 12.117 2.83384 9.58471 2.81628 7.61595 3.76333 5.53009 5.89018 4.68257L5.89018 1.76676C1.88093 2.69186-0.0190289 6.15512 0 9.57153 0.0204927 13.2163 2.04927 16.8069 6.7699 17.3661Z" fill="#DA9E29" transform="matrix(1.01365 0 0 1 694 499.016)"/></g></svg>